<svg width="26" height="26" viewBox="0 0 26 26" fill="none" xmlns="http://www.w3.org/2000/svg">
<path d="M9.1 26C8.75522 26 8.42456 25.863 8.18076 25.6192C7.93696 25.3754 7.8 25.0448 7.8 24.7V20.8H2.6C1.91044 20.8 1.24912 20.5261 0.761522 20.0385C0.273928 19.5509 0 18.8896 0 18.2V2.6C0 1.91044 0.273928 1.24912 0.761522 0.761522C1.24912 0.273928 1.91044 0 2.6 0H23.4C24.0896 0 24.7509 0.273928 25.2385 0.761522C25.7261 1.24912 26 1.91044 26 2.6V18.2C26 18.8896 25.7261 19.5509 25.2385 20.0385C24.7509 20.5261 24.0896 20.8 23.4 20.8H15.47L10.66 25.623C10.4 25.87 10.075 26 9.75 26H9.1ZM10.4 18.2V22.204L14.404 18.2H23.4V2.6H2.6V18.2H10.4ZM5.2 6.5H20.8V9.1H5.2V6.5ZM5.2 11.7H16.9V14.3H5.2V11.7Z" fill="#999999"/>
</svg>
